Patient4_TMGait_0pt5_02_right_01_GRF.mot
version=1
nRows=72
nColumns=19
inDegrees=no
endheader
time	F1x	F1y	F1z	M1x	M1y	M1z	F2x	F2y	F2z	M2x	M2y	M2z	EC1x	EC1y	EC1z	EC2x	EC2y	EC2z
1.24	-3.6253	751.574	61.5211	-269.2835	-50.1677	625.9261	0.95153	-0.38817	-7.4979	3.0329	-0.75237	-0.21681	-0.0592	0.0182	-0.0073	-0.0462	0.0165	0.9585
1.2531	-2.1517	748.3334	62.4318	-267.2689	-50.5007	621.4005	0.64359	0.69794	-5.2231	2.4585	-0.37223	0.80878	-0.0592	0.0182	-0.0073	-0.0462	0.0165	0.9585
1.2663	-1.0011	745.7636	63.2688	-265.3883	-50.7586	617.1942	0.37729	1.6482	-3.2165	1.9568	-0.090734	1.6807	-0.0592	0.0182	-0.0073	-0.0462	0.0165	0.9585
1.2794	-0.24724	744.3787	63.9605	-263.8953	-50.9095	613.7559	0.17242	2.4081	-1.6449	1.5723	0.10741	2.3525	-0.0592	0.0182	-0.0073	-0.0462	0.0165	0.9585
1.2926	0.13312	744.5165	64.4408	-262.9832	-50.9109	611.3427	0.02923	2.9687	-0.53178	1.3109	0.23749	2.8278	-0.0592	0.0182	-0.0073	-0.0462	0.0165	0.9585
1.3057	0.22195	746.2946	64.6766	-262.756	-50.7392	610.0154	-0.059654	3.3334	0.16449	1.1515	0.3252	3.1129	-0.0592	0.0182	-0.0073	-0.0462	0.0165	0.9585
1.3189	0.14811	749.6013	64.6235	-263.2225	-50.3455	609.6389	-0.10915	3.5104	0.53195	1.0591	0.38334	3.2221	-0.0592	0.0182	-0.0073	-0.0462	0.0165	0.9585
1.332	0.050952	754.1135	64.2643	-264.2995	-49.694	609.928	-0.13546	3.4886	0.65626	0.9885	0.43119	3.1516	-0.0592	0.0182	-0.0073	-0.0462	0.0165	0.9585
1.3451	0.093459	759.3576	63.578	-265.8306	-48.7292	610.4698	-0.15452	3.2387	0.62354	0.89093	0.47863	2.8765	-0.0592	0.0182	-0.0073	-0.0462	0.0165	0.9585
1.3583	0.43099	764.7795	62.5849	-267.6111	-47.4243	610.8024	-0.17325	2.7072	0.49663	0.71645	0.53573	2.3523	-0.0592	0.0182	-0.0073	-0.0462	0.0165	0.9585
1.3714	1.2011	769.8065	61.3186	-269.4174	-45.7579	610.4736	-0.19626	1.8223	0.33623	0.41554	0.59213	1.518	-0.0592	0.0182	-0.0073	-0.0462	0.0165	0.9585
1.3846	2.511	773.8882	59.8626	-271.0225	-43.7529	609.0731	-0.22022	0.52213	0.18624	-0.051917	0.63401	0.31022	-0.0592	0.0182	-0.0073	-0.0462	0.0165	0.9585
1.3977	4.4429	776.5184	58.3114	-272.2095	-41.4416	606.232	-0.22736	-1.2268	0.083384	-0.706	0.63619	-1.3113	-0.0592	0.0182	-0.0073	-0.0462	0.0165	0.9585
1.4109	7.0692	777.2743	56.7963	-272.7893	-38.8923	601.6472	-0.20475	-3.3703	0.055555	-1.5262	0.57192	-3.2946	-0.0592	0.0182	-0.0073	-0.0462	0.0165	0.9585
1.424	10.4458	775.8976	55.4329	-272.6339	-36.167	595.1572	-0.12299	-5.7054	0.13334	-2.4289	0.40157	-5.4528	-0.0592	0.0182	-0.0073	-0.0462	0.0165	0.9585
1.4371	14.5982	772.3086	54.3405	-271.6824	-33.3559	586.7604	0.047824	-7.8028	0.35456	-3.2395	0.076477	-7.383	-0.0592	0.0182	-0.0073	-0.0462	0.0165	0.9585
1.4503	19.479	766.5699	53.6052	-269.933	-30.5499	576.5934	0.34499	-8.9337	0.75645	-3.6625	-0.45283	-8.4104	-0.0592	0.0182	-0.0073	-0.0462	0.0165	0.9585
1.4634	24.9704	758.8563	53.3002	-267.4338	-27.8601	564.886	0.80052	-7.9816	1.3683	-3.2491	-1.2201	-7.5015	-0.0592	0.0182	-0.0073	-0.0462	0.0165	0.9585
1.4766	30.8769	749.4347	53.4284	-264.2764	-25.3665	551.9386	1.4238	-3.4136	2.1978	-1.3858	-2.2255	-3.2484	-0.0592	0.0182	-0.0073	-0.0462	0.0165	0.9585
1.4897	36.927	738.5548	53.9409	-260.556	-23.14	538.054	2.1928	6.6786	3.2102	2.685	-3.4142	6.092	-0.0592	0.0182	-0.0073	-0.0462	0.0165	0.9585
1.5029	42.7737	726.288	54.7092	-256.3131	-21.2117	523.4243	3.0211	24.4031	4.292	9.7961	-4.636	22.4594	-0.0592	0.0182	-0.0073	-0.0462	0.0165	0.9585
1.516	47.9978	712.36	55.5523	-251.4654	-19.6018	508.0248	3.7457	51.6645	5.2141	20.6956	-5.6051	47.5996	-0.0592	0.0182	-0.0073	-0.0462	0.0165	0.9585
1.5291	52.1691	696.0381	56.2326	-245.7614	-18.2944	491.5104	4.0623	89.5402	5.592	35.7935	-5.8404	82.4923	-0.0592	0.0182	-0.0073	-0.0462	0.0165	0.9585
1.5423	54.8797	676.1508	56.5038	-238.7875	-17.2697	473.2366	3.3907	137.3892	4.9524	54.8056	-4.6807	126.5285	-0.0592	0.0182	-0.0073	-0.0462	0.0165	0.9585
1.5554	55.8276	651.353	56.1044	-230.0673	-16.466	452.4156	0.96216	191.7809	2.7965	76.333	-1.3904	176.523	-0.0592	0.0182	-0.0073	-0.0462	0.0165	0.9585
1.5686	54.8997	620.6889	54.8349	-219.2657	-15.81	428.4729	-3.3437	246.6291	-1.3281	97.9254	4.4389	226.822	-0.0592	0.0182	-0.0073	-0.0462	0.0165	0.9585
1.5817	52.2322	584.2466	52.5733	-206.425	-15.1851	401.4416	-8.7529	296.3827	-7.3355	117.3881	12.3539	272.1537	-0.0592	0.0182	-0.0073	-0.0462	0.0165	0.9585
1.5949	48.2234	543.2586	49.3694	-191.9929	-14.4837	372.0432	-14.3476	339.2931	-14.2935	134.0653	21.0846	310.7223	-0.0592	0.0182	-0.0073	-0.0462	0.0165	0.9585
1.608	43.4069	499.3901	45.4241	-176.5679	-13.6362	341.2356	-19.4034	376.4449	-21.241	148.4505	29.454	343.3813	-0.0592	0.0182	-0.0073	-0.0462	0.0165	0.9585
1.6211	38.2436	454.0674	40.9835	-160.6541	-12.6288	309.8316	-23.3789	409.7609	-27.1436	161.3823	36.3076	371.8113	-0.0592	0.0182	-0.0073	-0.0462	0.0165	0.9585
1.6343	33.0417	408.2661	36.2536	-144.5902	-11.4749	278.3714	-25.9317	440.8925	-31.5258	173.5587	41.1069	397.5069	-0.0592	0.0182	-0.0073	-0.0462	0.0165	0.9585
1.6474	27.9155	362.6159	31.4138	-128.5838	-10.2366	247.2085	-26.9161	470.8834	-34.2042	185.4051	43.6595	421.4266	-0.0592	0.0182	-0.0073	-0.0462	0.0165	0.9585
1.6606	22.84	317.5446	26.6518	-112.7658	-9.0337	216.586	-26.4443	500.2542	-35.589	197.0953	44.4079	444.1219	-0.0592	0.0182	-0.0073	-0.0462	0.0165	0.9585
1.6737	17.7235	273.4629	22.1546	-97.2599	-8.0092	186.7503	-24.7512	529.2725	-36.2589	208.6816	43.9854	465.933	-0.0592	0.0182	-0.0073	-0.0462	0.0165	0.9585
1.6869	12.4746	230.8952	18.0895	-82.2381	-7.2985	158.0284	-22.2182	558.1712	-36.9161	220.1941	43.1821	487.2057	-0.0592	0.0182	-0.0073	-0.0462	0.0165	0.9585
1.7	7.0701	190.5412	14.5713	-67.9433	-6.9845	130.8474	-19.3194	587.1915	-38.0133	231.6837	42.5891	508.2747	-0.0592	0.0182	-0.0073	-0.0462	0.0165	0.9585
1.7131	1.6175	153.2599	11.6437	-54.6852	-7.0611	105.7459	-16.5489	616.5229	-39.7905	243.199	42.6136	529.4462	-0.0592	0.0182	-0.0073	-0.0462	0.0165	0.9585
1.7263	-3.5866	119.9137	9.2907	-42.786	-7.4163	83.2578	-14.2712	646.1591	-42.1399	254.7331	43.3055	550.8457	-0.0592	0.0182	-0.0073	-0.0462	0.0165	0.9585
1.7394	-8.1121	91.1357	7.4592	-32.4883	-7.8603	63.7727	-12.665	675.694	-44.7998	266.1388	44.521	572.2077	-0.0592	0.0182	-0.0073	-0.0462	0.0165	0.9585
1.7526	-11.5199	67.1238	6.0488	-23.8804	-8.1691	47.4078	-11.7844	704.3025	-47.4343	277.1082	45.9995	592.8895	-0.0592	0.0182	-0.0073	-0.0462	0.0165	0.9585
1.7657	-13.4925	47.6424	4.9281	-16.8941	-8.1465	34.0176	-11.5559	730.8165	-49.8225	287.1995	47.5273	611.9243	-0.0592	0.0182	-0.0073	-0.0462	0.0165	0.9585
1.7789	-13.9043	32.2315	3.9457	-11.3761	-7.6469	23.3249	-11.8504	753.9999	-51.8454	295.9404	48.9496	628.2885	-0.0592	0.0182	-0.0073	-0.0462	0.0165	0.9585
1.792	-12.8332	20.3537	3.0188	-7.1372	-6.6481	15.0014	-12.4606	772.7896	-53.4545	302.9343	50.1442	641.0662	-0.0592	0.0182	-0.0073	-0.0462	0.0165	0.9585
1.8051	-10.5972	11.5048	2.1247	-3.9939	-5.2519	8.7289	-13.1597	786.5471	-54.5839	307.9586	50.9721	649.6867	-0.0592	0.0182	-0.0073	-0.0462	0.0165	0.9585
1.8183	-7.8103	5.2972	1.3309	-1.7997	-3.727	4.2645	-13.7429	795.1442	-55.1292	310.9987	51.272	654.0031	-0.0592	0.0182	-0.0073	-0.0462	0.0165	0.9585
1.8314	-5.1038	1.3608	0.69968	-0.41615	-2.3379	1.3907	-14.0364	798.9423	-55.0019	312.2334	50.906	654.2677	-0.0592	0.0182	-0.0073	-0.0462	0.0165	0.9585
1.8446	-2.8165	-0.80609	0.25803	0.33844	-1.229	-0.21965	-13.9253	798.7172	-54.1873	311.9922	49.8133	651.0854	-0.0592	0.0182	-0.0073	-0.0462	0.0165	0.9585
1.8577	-1.0767	-1.7247	-0.026687	0.64924	-0.42198	-0.9269	-13.3364	795.4619	-52.7864	310.671	48.0464	645.2344	-0.0592	0.0182	-0.0073	-0.0462	0.0165	0.9585
1.8709	0.12385	-1.8473	-0.17997	0.67797	0.10481	-1.0504	-12.2716	790.2254	-50.9872	308.6688	45.7575	637.5605	-0.0592	0.0182	-0.0073	-0.0462	0.0165	0.9585
1.884	0.8753	-1.5282	-0.24386	0.54825	0.41506	-0.84867	-10.7923	784.0265	-49.0025	306.3599	43.1434	628.9039	-0.0592	0.0182	-0.0073	-0.0462	0.0165	0.9585
1.8971	1.2764	-1.0103	-0.2426	0.34573	0.5587	-0.49336	-9.0103	777.7933	-47.0215	304.0747	40.4015	620.0515	-0.0592	0.0182	-0.0073	-0.0462	0.0165	0.9585
1.9103	1.4424	-0.45799	-0.21073	0.12763	0.60006	-0.12141	-7.0687	772.2673	-45.2094	302.0704	37.721	611.6511	-0.0592	0.0182	-0.0073	-0.0462	0.0165	0.9585
1.9234	1.4517	0.046595	-0.16533	-0.073711	0.57701	0.22029	-5.1038	767.9377	-43.6941	300.5111	35.2584	604.152	-0.0592	0.0182	-0.0073	-0.0462	0.0165	0.9585
1.9366	1.3759	0.45991	-0.12931	-0.24102	0.52994	0.50318	-3.2223	765.0609	-42.5718	299.4731	33.1365	597.8164	-0.0592	0.0182	-0.0073	-0.0462	0.0165	0.9585
1.9497	1.2504	0.77159	-0.10148	-0.36799	0.46551	0.7279	-1.485	763.6754	-41.8948	298.9527	31.4223	592.7269	-0.0592	0.0182	-0.0073	-0.0462	0.0165	0.9585
1.9629	1.0963	0.97453	-0.089421	-0.45065	0.39592	0.89048	0.062907	763.63	-41.6797	298.8788	30.1481	588.8213	-0.0592	0.0182	-0.0073	-0.0462	0.0165	0.9585
1.976	0.93877	1.0561	-0.080039	-0.482	0.31948	0.97706	1.3959	764.6044	-41.9107	299.1216	29.3133	585.8868	-0.0592	0.0182	-0.0073	-0.0462	0.0165	0.9585
1.9891	0.77943	1.0021	-0.073713	-0.45596	0.24454	0.98258	2.5185	766.1429	-42.548	299.5057	28.8874	583.592	-0.0592	0.0182	-0.0073	-0.0462	0.0165	0.9585
2.0023	0.62838	0.76829	-0.057059	-0.35864	0.16487	0.84418	3.4432	767.7015	-43.5163	299.8275	28.8094	581.5305	-0.0592	0.0182	-0.0073	-0.0462	0.0165	0.9585
2.0154	0.47711	0.30133	-0.03561	-0.17085	0.086579	0.50151	4.1894	768.7262	-44.7039	299.8834	28.9914	579.2864	-0.0592	0.0182	-0.0073	-0.0462	0.0165	0.9585
2.0286	0.34815	-0.46303	-0.0073632	0.1297	0.016494	-0.12178	4.7749	768.7714	-45.9646	299.514	29.3248	576.5341	-0.0592	0.0182	-0.0073	-0.0462	0.0165	0.9585
2.0417	0.26902	-1.5771	0.014819	0.56146	-0.023738	-1.0857	5.2195	767.5756	-47.1409	298.633	29.6917	573.0704	-0.0592	0.0182	-0.0073	-0.0462	0.0165	0.9585
2.0549	0.28566	-3.0512	0.018313	1.129	-0.0091355	-2.4102	5.5506	765.066	-48.1095	297.2248	29.9949	568.8174	-0.0592	0.0182	-0.0073	-0.0462	0.0165	0.9585
2.068	0.47338	-4.8209	-0.016698	1.8071	0.10357	-4.0345	5.799	761.3544	-48.8194	295.34	30.1866	563.8205	-0.0592	0.0182	-0.0073	-0.0462	0.0165	0.9585
2.0811	0.91672	-6.6899	-0.11386	2.517	0.3696	-5.7627	6.0312	756.7521	-49.2919	293.1049	30.2563	558.2441	-0.0592	0.0182	-0.0073	-0.0462	0.0165	0.9585
2.0943	1.7252	-8.2601	-0.29514	3.1035	0.8496	-7.2375	6.3393	751.7455	-49.5986	290.7105	30.2142	552.3791	-0.0592	0.0182	-0.0073	-0.0462	0.0165	0.9585
2.1074	2.9879	-8.8421	-0.586	3.3043	1.5979	-7.8363	6.8542	746.8663	-49.8276	288.3641	30.0664	546.5386	-0.0592	0.0182	-0.0073	-0.0462	0.0165	0.9585
2.1206	4.7731	-7.4172	-1.0089	2.7342	2.655	-6.6563	7.7049	742.5169	-50.0533	286.2213	29.8081	540.9567	-0.0592	0.0182	-0.0073	-0.0462	0.0165	0.9585
2.1337	7.0601	-2.6145	-1.5677	0.87431	4.0135	-2.4612	8.9844	738.8002	-50.3273	284.3227	29.438	535.6852	-0.0592	0.0182	-0.0073	-0.0462	0.0165	0.9585
2.1469	9.6827	7.2139	-2.2338	-2.8999	5.5806	6.2341	10.7279	735.3768	-50.6587	282.5394	28.9506	530.4863	-0.0592	0.0182	-0.0073	-0.0462	0.0165	0.9585
2.16	12.2498	23.8042	-2.9185	-9.2453	7.1232	21.0005	12.8837	731.4402	-50.9876	280.5647	28.3281	524.8314	-0.0592	0.0182	-0.0073	-0.0462	0.0165	0.9585
2.1731	14.045	48.635	-3.4495	-18.7161	8.2107	43.1978	15.3339	725.7681	-51.1814	277.9389	27.5349	517.9263	-0.0592	0.0182	-0.0073	-0.0462	0.0165	0.9585
